<mxfile host="app.diagrams.net" agent="Mozilla/5.0 (Windows NT 10.0; Win64; x64) AppleWebKit/537.36 (KHTML, like Gecko) Chrome/130.0.0.0 Safari/537.36" version="24.8.2">
  <diagram name="Page-1" id="0783ab3e-0a74-02c8-0abd-f7b4e66b4bec">
    <mxGraphModel dx="880" dy="426" grid="1" gridSize="10" guides="1" tooltips="1" connect="1" arrows="1" fold="1" page="1" pageScale="1" pageWidth="850" pageHeight="1100" background="none" math="0" shadow="0">
      <root>
        <mxCell id="0" />
        <mxCell id="1" parent="0" />
        <mxCell id="4LbAWHEzMSz6IbCDSQNg-34" style="edgeStyle=orthogonalEdgeStyle;rounded=0;orthogonalLoop=1;jettySize=auto;html=1;exitX=0.5;exitY=1;exitDx=0;exitDy=0;" edge="1" parent="1" source="4LbAWHEzMSz6IbCDSQNg-19" target="4LbAWHEzMSz6IbCDSQNg-22">
          <mxGeometry relative="1" as="geometry" />
        </mxCell>
        <mxCell id="4LbAWHEzMSz6IbCDSQNg-19" value="Introduza ID e senha" style="rounded=1;whiteSpace=wrap;html=1;" vertex="1" parent="1">
          <mxGeometry x="327.5" y="110" width="105" height="50" as="geometry" />
        </mxCell>
        <mxCell id="4LbAWHEzMSz6IbCDSQNg-21" value="Id/Senha validos" style="text;html=1;align=center;verticalAlign=middle;whiteSpace=wrap;rounded=0;" vertex="1" parent="1">
          <mxGeometry x="295" y="190" width="60" height="30" as="geometry" />
        </mxCell>
        <mxCell id="4LbAWHEzMSz6IbCDSQNg-35" style="rounded=0;orthogonalLoop=1;jettySize=auto;html=1;exitX=1;exitY=0.5;exitDx=0;exitDy=0;entryX=0.5;entryY=0;entryDx=0;entryDy=0;" edge="1" parent="1" source="4LbAWHEzMSz6IbCDSQNg-22" target="4LbAWHEzMSz6IbCDSQNg-24">
          <mxGeometry relative="1" as="geometry" />
        </mxCell>
        <mxCell id="4LbAWHEzMSz6IbCDSQNg-53" style="rounded=0;orthogonalLoop=1;jettySize=auto;html=1;exitX=0;exitY=0.5;exitDx=0;exitDy=0;entryX=0.5;entryY=0;entryDx=0;entryDy=0;" edge="1" parent="1" source="4LbAWHEzMSz6IbCDSQNg-22" target="4LbAWHEzMSz6IbCDSQNg-39">
          <mxGeometry relative="1" as="geometry" />
        </mxCell>
        <mxCell id="4LbAWHEzMSz6IbCDSQNg-22" value="" style="rhombus;whiteSpace=wrap;html=1;" vertex="1" parent="1">
          <mxGeometry x="355" y="210" width="50" height="50" as="geometry" />
        </mxCell>
        <mxCell id="4LbAWHEzMSz6IbCDSQNg-37" style="edgeStyle=orthogonalEdgeStyle;rounded=0;orthogonalLoop=1;jettySize=auto;html=1;exitX=0;exitY=0.5;exitDx=0;exitDy=0;entryX=0.5;entryY=0;entryDx=0;entryDy=0;" edge="1" parent="1" source="4LbAWHEzMSz6IbCDSQNg-23" target="4LbAWHEzMSz6IbCDSQNg-25">
          <mxGeometry relative="1" as="geometry" />
        </mxCell>
        <mxCell id="4LbAWHEzMSz6IbCDSQNg-38" style="edgeStyle=orthogonalEdgeStyle;rounded=0;orthogonalLoop=1;jettySize=auto;html=1;exitX=1;exitY=0.5;exitDx=0;exitDy=0;entryX=1;entryY=0.5;entryDx=0;entryDy=0;" edge="1" parent="1" source="4LbAWHEzMSz6IbCDSQNg-23" target="4LbAWHEzMSz6IbCDSQNg-19">
          <mxGeometry relative="1" as="geometry">
            <Array as="points">
              <mxPoint x="590" y="395" />
              <mxPoint x="590" y="135" />
            </Array>
          </mxGeometry>
        </mxCell>
        <mxCell id="4LbAWHEzMSz6IbCDSQNg-23" value="" style="rhombus;whiteSpace=wrap;html=1;" vertex="1" parent="1">
          <mxGeometry x="432.5" y="370" width="50" height="50" as="geometry" />
        </mxCell>
        <mxCell id="4LbAWHEzMSz6IbCDSQNg-36" style="edgeStyle=orthogonalEdgeStyle;rounded=0;orthogonalLoop=1;jettySize=auto;html=1;exitX=0.5;exitY=1;exitDx=0;exitDy=0;" edge="1" parent="1" source="4LbAWHEzMSz6IbCDSQNg-24" target="4LbAWHEzMSz6IbCDSQNg-23">
          <mxGeometry relative="1" as="geometry" />
        </mxCell>
        <mxCell id="4LbAWHEzMSz6IbCDSQNg-24" value="Pormpt para reintrodução de dados" style="rounded=1;whiteSpace=wrap;html=1;" vertex="1" parent="1">
          <mxGeometry x="405" y="290" width="105" height="50" as="geometry" />
        </mxCell>
        <mxCell id="4LbAWHEzMSz6IbCDSQNg-25" value="" style="ellipse;html=1;shape=endState;fillColor=strokeColor;" vertex="1" parent="1">
          <mxGeometry x="387.5" y="450" width="30" height="30" as="geometry" />
        </mxCell>
        <mxCell id="4LbAWHEzMSz6IbCDSQNg-26" value="ID/Senha invalidos" style="text;html=1;align=center;verticalAlign=middle;whiteSpace=wrap;rounded=0;" vertex="1" parent="1">
          <mxGeometry x="405" y="190" width="60" height="30" as="geometry" />
        </mxCell>
        <mxCell id="4LbAWHEzMSz6IbCDSQNg-27" value="Restam tentativas de entrada" style="text;html=1;align=center;verticalAlign=middle;whiteSpace=wrap;rounded=0;" vertex="1" parent="1">
          <mxGeometry x="510" y="360" width="60" height="30" as="geometry" />
        </mxCell>
        <mxCell id="4LbAWHEzMSz6IbCDSQNg-28" value="Não restam tentativas de entrada" style="text;html=1;align=center;verticalAlign=middle;whiteSpace=wrap;rounded=0;" vertex="1" parent="1">
          <mxGeometry x="355" y="340" width="60" height="30" as="geometry" />
        </mxCell>
        <mxCell id="4LbAWHEzMSz6IbCDSQNg-33" style="edgeStyle=orthogonalEdgeStyle;rounded=0;orthogonalLoop=1;jettySize=auto;html=1;exitX=0.5;exitY=1;exitDx=0;exitDy=0;" edge="1" parent="1" source="4LbAWHEzMSz6IbCDSQNg-31" target="4LbAWHEzMSz6IbCDSQNg-19">
          <mxGeometry relative="1" as="geometry" />
        </mxCell>
        <mxCell id="4LbAWHEzMSz6IbCDSQNg-31" value="" style="ellipse;html=1;shape=startState;fillColor=#000000;strokeColor=#000000;" vertex="1" parent="1">
          <mxGeometry x="365" y="50" width="30" height="30" as="geometry" />
        </mxCell>
        <mxCell id="4LbAWHEzMSz6IbCDSQNg-54" style="edgeStyle=orthogonalEdgeStyle;rounded=0;orthogonalLoop=1;jettySize=auto;html=1;exitX=0.5;exitY=1;exitDx=0;exitDy=0;" edge="1" parent="1" source="4LbAWHEzMSz6IbCDSQNg-39" target="4LbAWHEzMSz6IbCDSQNg-42">
          <mxGeometry relative="1" as="geometry" />
        </mxCell>
        <mxCell id="4LbAWHEzMSz6IbCDSQNg-39" value="Selecione a função" style="rounded=1;whiteSpace=wrap;html=1;" vertex="1" parent="1">
          <mxGeometry x="222.5" y="290" width="105" height="50" as="geometry" />
        </mxCell>
        <mxCell id="4LbAWHEzMSz6IbCDSQNg-40" value="Outras funções também podem ser selecionadas" style="text;html=1;align=center;verticalAlign=middle;whiteSpace=wrap;rounded=0;" vertex="1" parent="1">
          <mxGeometry x="195" y="220" width="60" height="30" as="geometry" />
        </mxCell>
        <mxCell id="4LbAWHEzMSz6IbCDSQNg-55" style="edgeStyle=orthogonalEdgeStyle;rounded=0;orthogonalLoop=1;jettySize=auto;html=1;exitX=0.5;exitY=1;exitDx=0;exitDy=0;entryX=0.5;entryY=0;entryDx=0;entryDy=0;" edge="1" parent="1" source="4LbAWHEzMSz6IbCDSQNg-42" target="4LbAWHEzMSz6IbCDSQNg-44">
          <mxGeometry relative="1" as="geometry" />
        </mxCell>
        <mxCell id="4LbAWHEzMSz6IbCDSQNg-42" value="Selecione &quot;Explorar Cursos&quot;" style="rounded=1;whiteSpace=wrap;html=1;" vertex="1" parent="1">
          <mxGeometry x="222.5" y="370" width="105" height="50" as="geometry" />
        </mxCell>
        <mxCell id="4LbAWHEzMSz6IbCDSQNg-60" style="edgeStyle=orthogonalEdgeStyle;rounded=0;orthogonalLoop=1;jettySize=auto;html=1;exitX=0.5;exitY=1;exitDx=0;exitDy=0;" edge="1" parent="1" source="4LbAWHEzMSz6IbCDSQNg-44" target="4LbAWHEzMSz6IbCDSQNg-58">
          <mxGeometry relative="1" as="geometry" />
        </mxCell>
        <mxCell id="4LbAWHEzMSz6IbCDSQNg-44" value="Selecione uma area especifica" style="rounded=1;whiteSpace=wrap;html=1;" vertex="1" parent="1">
          <mxGeometry x="222.5" y="460" width="105" height="50" as="geometry" />
        </mxCell>
        <mxCell id="4LbAWHEzMSz6IbCDSQNg-46" value="Ver detalhes sobre a area" style="rounded=1;whiteSpace=wrap;html=1;" vertex="1" parent="1">
          <mxGeometry x="135" y="620" width="105" height="50" as="geometry" />
        </mxCell>
        <mxCell id="4LbAWHEzMSz6IbCDSQNg-61" style="edgeStyle=orthogonalEdgeStyle;rounded=0;orthogonalLoop=1;jettySize=auto;html=1;exitX=0.5;exitY=1;exitDx=0;exitDy=0;" edge="1" parent="1" source="4LbAWHEzMSz6IbCDSQNg-48" target="4LbAWHEzMSz6IbCDSQNg-59">
          <mxGeometry relative="1" as="geometry" />
        </mxCell>
        <mxCell id="4LbAWHEzMSz6IbCDSQNg-48" value="Selecione um curso da area" style="rounded=1;whiteSpace=wrap;html=1;" vertex="1" parent="1">
          <mxGeometry x="295" y="620" width="105" height="50" as="geometry" />
        </mxCell>
        <mxCell id="4LbAWHEzMSz6IbCDSQNg-52" style="edgeStyle=orthogonalEdgeStyle;rounded=0;orthogonalLoop=1;jettySize=auto;html=1;exitX=0;exitY=0.5;exitDx=0;exitDy=0;entryX=1;entryY=0.5;entryDx=0;entryDy=0;" edge="1" parent="1" source="4LbAWHEzMSz6IbCDSQNg-49" target="4LbAWHEzMSz6IbCDSQNg-50">
          <mxGeometry relative="1" as="geometry" />
        </mxCell>
        <mxCell id="4LbAWHEzMSz6IbCDSQNg-74" style="edgeStyle=orthogonalEdgeStyle;rounded=0;orthogonalLoop=1;jettySize=auto;html=1;exitX=1;exitY=0.5;exitDx=0;exitDy=0;entryX=1;entryY=0.5;entryDx=0;entryDy=0;" edge="1" parent="1" source="4LbAWHEzMSz6IbCDSQNg-49" target="4LbAWHEzMSz6IbCDSQNg-58">
          <mxGeometry relative="1" as="geometry">
            <Array as="points">
              <mxPoint x="490" y="1015" />
              <mxPoint x="490" y="575" />
            </Array>
          </mxGeometry>
        </mxCell>
        <mxCell id="4LbAWHEzMSz6IbCDSQNg-49" value="" style="rhombus;whiteSpace=wrap;html=1;" vertex="1" parent="1">
          <mxGeometry x="250" y="990" width="50" height="50" as="geometry" />
        </mxCell>
        <mxCell id="4LbAWHEzMSz6IbCDSQNg-50" value="" style="ellipse;html=1;shape=endState;fillColor=strokeColor;" vertex="1" parent="1">
          <mxGeometry x="90" y="1000" width="30" height="30" as="geometry" />
        </mxCell>
        <mxCell id="4LbAWHEzMSz6IbCDSQNg-75" style="rounded=0;orthogonalLoop=1;jettySize=auto;html=1;exitX=0;exitY=1;exitDx=0;exitDy=0;" edge="1" parent="1" source="4LbAWHEzMSz6IbCDSQNg-58" target="4LbAWHEzMSz6IbCDSQNg-46">
          <mxGeometry relative="1" as="geometry" />
        </mxCell>
        <mxCell id="4LbAWHEzMSz6IbCDSQNg-76" style="rounded=0;orthogonalLoop=1;jettySize=auto;html=1;exitX=1;exitY=1;exitDx=0;exitDy=0;" edge="1" parent="1" source="4LbAWHEzMSz6IbCDSQNg-58" target="4LbAWHEzMSz6IbCDSQNg-48">
          <mxGeometry relative="1" as="geometry" />
        </mxCell>
        <mxCell id="4LbAWHEzMSz6IbCDSQNg-58" value="" style="rhombus;whiteSpace=wrap;html=1;" vertex="1" parent="1">
          <mxGeometry x="250" y="550" width="50" height="50" as="geometry" />
        </mxCell>
        <mxCell id="4LbAWHEzMSz6IbCDSQNg-59" value="Selecione detalhes sobre o curso" style="rounded=1;whiteSpace=wrap;html=1;" vertex="1" parent="1">
          <mxGeometry x="295" y="710" width="105" height="50" as="geometry" />
        </mxCell>
        <mxCell id="4LbAWHEzMSz6IbCDSQNg-81" style="edgeStyle=orthogonalEdgeStyle;rounded=0;orthogonalLoop=1;jettySize=auto;html=1;" edge="1" parent="1" source="4LbAWHEzMSz6IbCDSQNg-64" target="4LbAWHEzMSz6IbCDSQNg-80">
          <mxGeometry relative="1" as="geometry" />
        </mxCell>
        <mxCell id="4LbAWHEzMSz6IbCDSQNg-64" value="" style="html=1;points=[];perimeter=orthogonalPerimeter;fillColor=strokeColor;rotation=90;" vertex="1" parent="1">
          <mxGeometry x="272.5" y="790" width="5" height="80" as="geometry" />
        </mxCell>
        <mxCell id="4LbAWHEzMSz6IbCDSQNg-69" style="edgeStyle=orthogonalEdgeStyle;rounded=0;orthogonalLoop=1;jettySize=auto;html=1;exitX=0.5;exitY=1;exitDx=0;exitDy=0;entryX=0.1;entryY=0.788;entryDx=0;entryDy=0;entryPerimeter=0;" edge="1" parent="1" source="4LbAWHEzMSz6IbCDSQNg-46" target="4LbAWHEzMSz6IbCDSQNg-64">
          <mxGeometry relative="1" as="geometry">
            <Array as="points">
              <mxPoint x="188" y="790" />
              <mxPoint x="252" y="790" />
            </Array>
          </mxGeometry>
        </mxCell>
        <mxCell id="4LbAWHEzMSz6IbCDSQNg-70" style="edgeStyle=orthogonalEdgeStyle;rounded=0;orthogonalLoop=1;jettySize=auto;html=1;exitX=0.5;exitY=1;exitDx=0;exitDy=0;entryX=-0.1;entryY=0.213;entryDx=0;entryDy=0;entryPerimeter=0;" edge="1" parent="1" source="4LbAWHEzMSz6IbCDSQNg-59" target="4LbAWHEzMSz6IbCDSQNg-64">
          <mxGeometry relative="1" as="geometry" />
        </mxCell>
        <mxCell id="4LbAWHEzMSz6IbCDSQNg-85" style="edgeStyle=orthogonalEdgeStyle;rounded=0;orthogonalLoop=1;jettySize=auto;html=1;entryX=0.5;entryY=0;entryDx=0;entryDy=0;" edge="1" parent="1" source="4LbAWHEzMSz6IbCDSQNg-72" target="4LbAWHEzMSz6IbCDSQNg-49">
          <mxGeometry relative="1" as="geometry" />
        </mxCell>
        <mxCell id="4LbAWHEzMSz6IbCDSQNg-72" value="Solicita ver outra area" style="rounded=1;whiteSpace=wrap;html=1;" vertex="1" parent="1">
          <mxGeometry x="231.25" y="920" width="87.5" height="40" as="geometry" />
        </mxCell>
        <mxCell id="4LbAWHEzMSz6IbCDSQNg-77" value="Ver outra area" style="text;html=1;align=center;verticalAlign=middle;whiteSpace=wrap;rounded=0;" vertex="1" parent="1">
          <mxGeometry x="350" y="990" width="95" height="30" as="geometry" />
        </mxCell>
        <mxCell id="4LbAWHEzMSz6IbCDSQNg-82" style="edgeStyle=orthogonalEdgeStyle;rounded=0;orthogonalLoop=1;jettySize=auto;html=1;" edge="1" parent="1" source="4LbAWHEzMSz6IbCDSQNg-80" target="4LbAWHEzMSz6IbCDSQNg-72">
          <mxGeometry relative="1" as="geometry" />
        </mxCell>
        <mxCell id="4LbAWHEzMSz6IbCDSQNg-80" value="Ver detalhes" style="rounded=1;whiteSpace=wrap;html=1;" vertex="1" parent="1">
          <mxGeometry x="236.25" y="860" width="77.5" height="30" as="geometry" />
        </mxCell>
        <mxCell id="4LbAWHEzMSz6IbCDSQNg-83" value="Sair desta função" style="text;html=1;align=center;verticalAlign=middle;whiteSpace=wrap;rounded=0;" vertex="1" parent="1">
          <mxGeometry x="135" y="990" width="115" height="30" as="geometry" />
        </mxCell>
      </root>
    </mxGraphModel>
  </diagram>
</mxfile>
